<svg xmlns="http://www.w3.org/2000/svg" width="160" height="47" fill="none"><g clip-path="url(#a)"><path fill="#000" d="M153.848 46.277H6.153c-2.994 0-5.419-2.411-5.419-5.386V6.11C.734 3.134 3.159.723 6.153.723h147.695c2.993 0 5.418 2.411 5.418 5.387v34.78c0 2.976-2.425 5.387-5.418 5.387Z"/><path fill="#A7A9AB" d="M6.02 1.187c-2.665 0-4.834 2.164-4.834 4.823v34.98c0 2.66 2.169 4.823 4.834 4.823h147.96c2.665 0 4.834-2.164 4.834-4.823V6.01c0-2.66-2.169-4.823-4.834-4.823H6.02ZM153.98 47H6.02C2.7 47 0 44.303 0 40.99V6.01C0 2.697 2.7 0 6.02 0h147.96C157.3 0 160 2.697 160 6.01v34.98c0 3.313-2.7 6.01-6.02 6.01Z"/><path fill="#fff" d="m55.386 12.118-.608-1.875c-.149-.463-.275-.98-.39-1.42h-.023c-.112.44-.23.968-.364 1.42l-.596 1.875h1.98Zm-2.21 1.048-.666 2.158h-1.456l2.477-7.61h1.797l2.51 7.61h-1.512l-.7-2.158M59.94 9.83l.907 2.785c.16.485.272.926.375 1.378h.035c.103-.452.23-.881.378-1.378l.895-2.785h1.476l-2.13 5.496h-1.385L58.416 9.83M68.259 12.636c-.998-.01-1.95.193-1.95 1.029 0 .542.356.79.803.79.57 0 .975-.361 1.11-.757.037-.101.037-.203.037-.305v-.757Zm1.373 1.368c0 .497.023.982.092 1.319H68.45l-.1-.608h-.038c-.33.427-.915.732-1.648.732-1.124 0-1.752-.8-1.752-1.636 0-1.378 1.247-2.087 3.308-2.076v-.09c0-.361-.146-.96-1.132-.96-.55 0-1.124.17-1.502.406l-.276-.903c.413-.249 1.136-.483 2.019-.483 1.786 0 2.302 1.115 2.302 2.324M71.625 9.828h1.407v5.497h-1.407V9.828Zm.696-.79c-.467 0-.777-.34-.777-.746 0-.43.319-.757.792-.757.478 0 .776.327.788.757 0 .406-.31.745-.788.745M75.058 15.327h1.41V7.3h-1.41v8.027ZM81.467 12.636c-.998-.01-1.95.193-1.95 1.029 0 .542.356.79.803.79.574 0 .975-.361 1.113-.757.034-.101.034-.203.034-.305v-.757Zm1.373 1.368c0 .497.023.982.092 1.319h-1.27l-.103-.608h-.035c-.332.427-.917.732-1.65.732-1.122 0-1.753-.8-1.753-1.636 0-1.378 1.25-2.087 3.312-2.076v-.09c0-.361-.15-.96-1.136-.96-.55 0-1.123.17-1.5.406l-.274-.903c.413-.249 1.132-.483 2.015-.483 1.786 0 2.302 1.115 2.302 2.324M86.242 13.056c0 .113.011.226.034.328.15.565.643.971 1.248.971.883 0 1.422-.689 1.422-1.804 0-.972-.47-1.763-1.41-1.763-.574 0-1.099.407-1.248 1.017a1.64 1.64 0 0 0-.046.361v.89ZM84.832 7.3h1.41v3.285h.023c.344-.531.949-.879 1.786-.879 1.365 0 2.337 1.116 2.325 2.788 0 1.974-1.27 2.957-2.531 2.957-.723 0-1.362-.27-1.763-.949h-.023l-.07.825h-1.203c.023-.373.046-.983.046-1.536M92.035 15.327h1.408V7.3h-1.408v8.027ZM98.932 11.995c.011-.508-.218-1.344-1.156-1.344-.871 0-1.238.78-1.296 1.344h2.452Zm-2.452.97c.035.993.826 1.423 1.72 1.423.651 0 1.11-.102 1.546-.249l.206.946c-.481.206-1.147.35-1.946.35-1.812 0-2.879-1.093-2.879-2.773 0-1.525.94-2.957 2.73-2.957 1.809 0 2.405 1.466 2.405 2.674 0 .26-.023.464-.046.585M107.26 14.444c.8 0 1.362-.768 1.362-1.884 0-.859-.39-1.853-1.351-1.853-.997 0-1.399.96-1.399 1.876 0 1.059.539 1.861 1.373 1.861h.015Zm-.046 1.006c-1.571 0-2.795-1.062-2.795-2.833 0-1.808 1.201-2.912 2.887-2.912 1.66 0 2.772 1.15 2.772 2.821 0 2.02-1.445 2.924-2.853 2.924M111.736 11.464c0-.632-.02-1.163-.043-1.638h1.225l.068.825h.035c.252-.43.86-.946 1.789-.946.972 0 1.981.618 1.981 2.358v3.26h-1.411V12.22c0-.79-.298-1.39-1.063-1.39-.562 0-.952.396-1.101.814a1.27 1.27 0 0 0-.069.44v3.238h-1.411M123.284 8.416v1.41h1.338v1.039h-1.338v2.415c0 .678.183 1.017.719 1.017.252 0 .39-.012.551-.057l.023 1.048c-.207.082-.585.147-1.021.147-.525 0-.949-.17-1.213-.45-.309-.316-.447-.824-.447-1.547v-2.573h-.791v-1.04h.791V8.8M126.192 7.3h1.41v3.273h.023c.172-.26.413-.474.7-.621a2.03 2.03 0 0 1 .972-.246c.952 0 1.946.619 1.946 2.381v3.24h-1.407v-3.093c0-.79-.298-1.4-1.078-1.4-.548 0-.938.36-1.098.779a1.228 1.228 0 0 0-.058.418v3.296h-1.41M136.697 11.995c.011-.508-.218-1.344-1.158-1.344-.872 0-1.236.78-1.293 1.344h2.451Zm-2.451.97c.034.993.822 1.423 1.717 1.423.654 0 1.112-.102 1.545-.249l.21.946c-.482.206-1.147.35-1.95.35-1.809 0-2.876-1.093-2.876-2.773 0-1.525.941-2.957 2.727-2.957 1.809 0 2.405 1.466 2.405 2.674 0 .26-.023.464-.046.585M35.645 22.703c-.038-3.765 3.128-5.598 3.274-5.683-1.792-2.576-4.57-2.926-5.548-2.955-2.33-.24-4.593 1.379-5.78 1.379-1.212 0-3.044-1.353-5.014-1.314-2.54.04-4.914 1.489-6.216 3.734-2.683 4.584-.682 11.318 1.893 15.024 1.29 1.813 2.792 3.841 4.762 3.768 1.926-.08 2.646-1.21 4.971-1.21 2.305 0 2.982 1.21 4.991 1.165 2.067-.034 3.37-1.822 4.61-3.655 1.491-2.08 2.088-4.127 2.11-4.231-.048-.017-4.013-1.509-4.053-6.022ZM31.85 11.63c1.035-1.276 1.748-3.016 1.548-4.778-1.5.067-3.375 1.022-4.456 2.27-.954 1.102-1.811 2.907-1.588 4.602 1.686.124 3.415-.836 4.496-2.093ZM58.898 29.892l-1.33-4.047c-.14-.413-.404-1.387-.794-2.918h-.046c-.155.658-.407 1.632-.748 2.918l-1.307 4.047h4.225Zm4.599 6.465h-2.686l-1.471-4.553H54.23l-1.402 4.553h-2.615l5.07-15.5h3.124M73.953 30.724c0-1.09-.25-1.986-.748-2.692-.545-.735-1.276-1.105-2.193-1.105a2.64 2.64 0 0 0-1.692.61c-.504.41-.837.941-.995 1.602a3.18 3.18 0 0 0-.114.754v1.864c0 .814.252 1.5.757 2.06.507.561 1.163.838 1.972.838.952 0 1.692-.358 2.216-1.081.533-.72.797-1.67.797-2.85Zm2.569-.094c0 1.901-.522 3.407-1.565 4.508-.935.983-2.096 1.472-3.478 1.472-1.497 0-2.569-.531-3.222-1.588h-.046v5.89h-2.523V28.859c0-1.194-.029-2.42-.092-3.68h2.216l.14 1.774h.05c.84-1.336 2.115-2.003 3.827-2.003 1.336 0 2.457.523 3.348 1.565.895 1.045 1.345 2.415 1.345 4.115ZM86.999 30.724c0-1.09-.25-1.986-.748-2.692-.545-.735-1.276-1.105-2.194-1.105-.622 0-1.186.207-1.691.61-.507.41-.834.941-.99 1.602-.08.305-.117.556-.117.754v1.864c0 .814.25 1.5.754 2.06.508.561 1.164.838 1.976.838.949 0 1.688-.358 2.216-1.081.527-.72.794-1.67.794-2.85Zm2.566-.094c0 1.901-.519 3.407-1.563 4.508-.934.983-2.092 1.472-3.477 1.472-1.494 0-2.566-.531-3.223-1.588h-.043v5.89h-2.523V28.859c0-1.194-.031-2.42-.091-3.68h2.216l.14 1.774h.049c.837-1.336 2.113-2.003 3.825-2.003 1.338 0 2.454.523 3.351 1.565.895 1.045 1.339 2.415 1.339 4.115ZM104.162 32.01c0 1.317-.465 2.39-1.399 3.22-1.027.904-2.452 1.356-4.284 1.356-1.694 0-3.053-.322-4.082-.966l.585-2.067a7.01 7.01 0 0 0 3.647.986c.948 0 1.688-.21 2.219-.63.527-.424.791-.989.791-1.695 0-.627-.215-1.16-.651-1.59-.436-.43-1.161-.828-2.173-1.198-2.755-1.014-4.132-2.497-4.132-4.446 0-1.273.482-2.319 1.448-3.132.964-.813 2.248-1.223 3.85-1.223 1.434 0 2.624.249 3.573.737l-.631 2.025c-.886-.474-1.889-.714-3.01-.714-.889 0-1.58.214-2.076.644-.418.384-.63.853-.63 1.404 0 .613.237 1.118.722 1.516.418.368 1.181.766 2.288 1.198 1.353.537 2.348 1.164 2.987 1.884.637.72.958 1.618.958 2.692ZM112.491 27.04h-2.778v5.427c0 1.381.49 2.07 1.473 2.07.448 0 .823-.037 1.118-.113l.069 1.884c-.493.187-1.149.277-1.958.277-.995 0-1.775-.3-2.336-.895-.56-.6-.84-1.605-.84-3.014V27.04h-1.658v-1.864h1.658v-2.045l2.474-.738v2.783h2.778M122.416 30.757c0-1.03-.227-1.912-.68-2.652-.525-.892-1.281-1.339-2.262-1.339-1.012 0-1.783.447-2.311 1.34-.453.74-.673 1.637-.673 2.7 0 1.03.22 1.912.673 2.649.545.892 1.308 1.339 2.291 1.339.96 0 1.717-.452 2.262-1.362.467-.751.7-1.644.7-2.675Zm2.614-.079c0 1.718-.496 3.127-1.493 4.232-1.044 1.135-2.429 1.7-4.155 1.7-1.668 0-2.993-.545-3.982-1.633-.986-1.087-1.479-2.46-1.479-4.115 0-1.734.507-3.152 1.528-4.254 1.018-1.107 2.391-1.658 4.117-1.658 1.666 0 3.007.545 4.016 1.633.967 1.062 1.448 2.423 1.448 4.095ZM133.224 27.365a4.438 4.438 0 0 0-.794-.068c-.886 0-1.574.33-2.056.989-.418.585-.627 1.319-.627 2.206v5.866h-2.521l.021-7.657c0-1.29-.032-2.463-.092-3.522h2.196l.092 2.141h.066c.266-.734.688-1.328 1.261-1.771a3.093 3.093 0 0 1 1.823-.599c.233 0 .445.017.631.045M142.089 29.597c.017-.734-.146-1.373-.487-1.91-.436-.688-1.11-1.036-2.01-1.036-.823 0-1.494.34-2.007 1.014-.418.537-.671 1.18-.742 1.932h5.246Zm2.403.644c0 .446-.029.82-.089 1.127h-7.56c.025 1.104.392 1.949 1.095 2.53.636.523 1.462.78 2.474.78 1.118 0 2.139-.175 3.059-.528l.396 1.726c-1.075.458-2.343.692-3.808.692-1.757 0-3.139-.511-4.142-1.534-1.001-1.017-1.506-2.386-1.506-4.104 0-1.686.465-3.09 1.402-4.208.978-1.198 2.303-1.794 3.965-1.794 1.635 0 2.876.596 3.716 1.794.668.949.998 2.124.998 3.52Z"/></g><defs><clipPath id="a"><path fill="#fff" d="M0 0h160v47H0z"/></clipPath></defs></svg>