<svg xmlns="http://www.w3.org/2000/svg" width="188" height="64" fill="none"><path fill="#C29E5A" d="M32.078 6.141c.865 0 1.947.043 2.525.1a23.157 23.157 0 0 1 1.52.19c.138.018.358.054.49.08l.64.122c2.75.53 5.449 1.56 8 3.046 1.14.665 2.432 1.561 3.249 2.257.163.139.365.307.45.374.063.05.228.205.439.408.212.206.477.467.742.73.527.526 1.063 1.07 1.19 1.221a27.33 27.33 0 0 1 2.614 3.575c.73 1.222 1.33 2.43 1.8 3.625l.235.592c.11.268.482 1.449.62 1.966.196.736.335 1.35.44 1.946.33 1.871.396 2.69.395 4.908-.001 1.502-.016 1.885-.11 2.715-.018.154-.045.413-.061.576-.072.73-.316 2.027-.552 2.937a29.83 29.83 0 0 1-.41 1.367c-.16.499-.319.965-.388 1.118-.014.03-.1.246-.19.48-.09.232-.211.522-.268.646-.055.119-.138.307-.184.418-.211.503-.855 1.72-1.296 2.45-.567.94-1.428 2.155-2.008 2.838-.088.103-.259.316-.378.47-.158.204-.721.79-1.31 1.378-.59.59-1.215 1.193-1.502 1.433a39.435 39.435 0 0 1-2.013 1.568c-.372.26-.985.666-1.316.87-.9.552-1.143.687-2.11 1.17a24.219 24.219 0 0 1-7.411 2.307l-.53.076a12.11 12.11 0 0 1-.585.064c-.206.017-.486.045-.621.061-.346.041-1.074.072-1.766.085-.689.013-1.36.008-1.588-.023a4.605 4.605 0 0 0-.45-.027 5.005 5.005 0 0 1-.513-.032l-.518-.06a24.97 24.97 0 0 1-1.116-.13 33.767 33.767 0 0 1-1.944-.366c-1.817-.43-3.058-.835-4.518-1.48-.76-.335-2.308-1.133-2.767-1.427-.092-.059-.382-.243-.645-.408-1.045-.658-2.428-1.702-3.249-2.454-.187-.172-.47-.426-.626-.565-.328-.291-.772-.746-1.438-1.472a20.29 20.29 0 0 1-1.262-1.506 24.44 24.44 0 0 1-4.04-7.751l-.201-.648c-.16-.517-.473-1.916-.577-2.585l-.08-.515c-.044-.28-.07-.497-.145-1.161-.067-.603-.1-1.61-.1-2.592.001-.98.034-1.946.102-2.463.017-.128.045-.367.062-.53.1-.967.36-2.345.632-3.359l.155-.578c.322-1.196.973-2.876 1.6-4.13.666-1.33 1.548-2.75 2.378-3.827l.42-.546a7.97 7.97 0 0 1 .37-.444c.092-.1.271-.314.397-.472.166-.208.679-.74 1.208-1.267.53-.528 1.085-1.061 1.339-1.27 1.973-1.635 3.731-2.756 5.914-3.77a25.107 25.107 0 0 1 5.763-1.83l.498-.095a28.66 28.66 0 0 1 1.54-.22 24.86 24.86 0 0 1 3.06-.164Zm1.403 2.394c-.462-.045-2.378-.034-3.02.017a23.829 23.829 0 0 0-2.01.217 18.246 18.246 0 0 0-1.525.28c-1.235.248-3.065.841-4.307 1.395a62.11 62.11 0 0 0-2.04 1.021 24.94 24.94 0 0 0-2.363 1.533 32.991 32.991 0 0 0-1.204.947 2.492 2.492 0 0 0-.172.152 2.502 2.502 0 0 1-.144.137c-.068.062-.154.138-.24.213a14.43 14.43 0 0 0-1.328 1.305c-.157.182-.413.465-.571.63a7.592 7.592 0 0 0-.457.522c-.1.13-.27.348-.381.486-.476.594-1.095 1.505-1.649 2.427-.37.616-1.09 2.055-1.322 2.642l-.223.562c-.468 1.184-.858 2.591-1.159 4.185-.08.425-.228 1.566-.263 2.036l-.07.922c-.066.869.024 2.91.171 3.883.027.18.065.434.083.564.036.254.045.303.2 1.072.227 1.134.613 2.47.996 3.452.163.417.428 1.06.505 1.229.117.254.737 1.49.819 1.633.04.069.134.237.21.373.16.287.134.244.523.857a23.789 23.789 0 0 0 1.393 1.956c.045.06.213.257.373.438.16.18.417.476.573.657.36.418 1.443 1.485 1.911 1.882 1.077.913 1.71 1.394 2.593 1.98 1.336.883 2.083 1.197 3.129 1.322.163.02.369.049.458.064l.175.013a6.856 6.856 0 0 0 .873-.042c.745-.09 1.239-.235 1.862-.542.457-.226.758-.42 1.2-.776.617-.498 1.124-1.1 1.73-2.061.147-.232.539-1.038.698-1.437.276-.691.693-2.013.822-2.61.145-.668.204-.969.273-1.385.095-.58.161-1.058.203-1.462.017-.172.047-.44.065-.596.018-.151.046-.501.06-.775.016-.276.046-.74.069-1.033.027-.353.04-1.157.04-2.461 0-.9 0-1.386-.008-1.658-.007-.278-.022-.319-.037-.348a1.677 1.677 0 0 0-.178-.249c-.1-.124-.242-.291-.44-.515a25.559 25.559 0 0 1-.47-.554 18.143 18.143 0 0 0-.516-.595 28.965 28.965 0 0 1-.518-.586 76.694 76.694 0 0 0-1.26-1.444l-.633-.705c-.166-.188-.435-.487-.595-.663-.25-.276-.41-.484-.487-.672a.724.724 0 0 1 .006-.567.977.977 0 0 1 .363-.44.974.974 0 0 1 .539-.182c.072 0 .142.007.22.038.077.03.157.081.255.16.195.157.484.445.992.96.533.54 1.188 1.222 1.454 1.516.414.455.764.828 1.016 1.083.124.126.225.221.296.285.002-.037.007-.085.009-.144.006-.246.007-.681.007-1.446 0-1.188.014-2.656.034-3.845.01-.595.022-1.121.034-1.508a25.012 25.012 0 0 1 .026-.611.55.55 0 0 1 .012-.087c.046-.166.11-.3.21-.408a.945.945 0 0 1 .386-.24.744.744 0 0 1 .265-.061c.085 0 .172.024.293.061a.83.83 0 0 1 .32.173c.089.08.154.18.209.305l.07.155.007.02v.02l.01 3.903c.003 1.23.008 2.209.014 2.882a64.274 64.274 0 0 0 .013.852l.111-.102c.158-.15.375-.366.618-.614a59.43 59.43 0 0 0 1.527-1.611c.235-.26.678-.72.986-1.024.485-.478.59-.572.774-.64a.944.944 0 0 1 .361-.069.878.878 0 0 1 .349.095.889.889 0 0 1 .38.323.883.883 0 0 1 .128.482.834.834 0 0 1-.083.402c-.062.123-.166.247-.324.414-.142.15-.34.379-.44.505-.103.132-.31.367-.46.523-.147.153-.38.418-.518.587-.14.173-.329.388-.423.479a4.17 4.17 0 0 0-.333.379c-.101.132-.31.374-.465.539-.152.161-.39.433-.528.603-.138.17-.3.36-.363.417-.05.046-.198.216-.33.38-.132.166-.37.438-.53.607-.118.126-.193.198-.248.275a.595.595 0 0 0-.106.267c-.022.128-.03.305-.032.58-.002.275.003.642.009 1.145.017 1.702.05 2.723.11 3.446.111 1.347.13 1.531.219 2.182.306 2.252.849 4.167 1.603 5.676.565 1.128 1.454 2.23 2.313 2.866.852.632 1.72.984 2.78 1.128.602.081.866.074 1.746-.05 1.001-.141 1.987-.596 3.418-1.59l.408-.283c.214-.148 1.2-.93 1.383-1.096.113-.102.31-.269.44-.372.16-.127.586-.538 1.011-.966.425-.427.839-.862.977-1.035a9.298 9.298 0 0 1 .258-.306.6.6 0 0 1 .05-.052l.008-.008.023-.024.072-.084a28.15 28.15 0 0 0 .727-.913 26.56 26.56 0 0 0 1.407-2.1c.225-.366.907-1.677 1.117-2.146.374-.837.724-1.763.955-2.52l.22-.719c.072-.237.243-.937.356-1.46.133-.613.253-1.41.344-2.271.019-.181.048-.408.065-.504.004-.02.007-.085.011-.191.004-.105.006-.243.009-.404.005-.321.007-.733.007-1.151 0-.84-.01-1.694-.03-1.893-.313-3.24-1.003-5.723-2.303-8.3-.796-1.575-1.542-2.721-2.745-4.209-.428-.528-1.286-1.466-1.631-1.783-1.377-1.264-2.143-1.875-3.292-2.633-1.91-1.259-3.64-2.102-5.71-2.784a40.998 40.998 0 0 0-1.774-.504c-.937-.224-2.457-.47-3.312-.534-.258-.02-.607-.048-.777-.064Zm7.58 26.401c.304 0 .622.04 1.21.118 1.036.14 2.236.634 3.184 1.31.582.416 1.473 1.312 1.943 1.954a10.99 10.99 0 0 1 .766 1.24c.026.052.048.1.063.138l.02.056c.004.015.009.036.009.057a.14.14 0 0 1-.031.084.325.325 0 0 1-.045.046 1.016 1.016 0 0 1-.123.086c-.098.06-.23.126-.369.185-.766.326-1.619.574-2.407.7l-.39.065c-.224.04-.55.067-.854.078-.3.012-.592.008-.742-.018a2.431 2.431 0 0 0-.313-.027c-.18-.003-.402-.036-.869-.127-.35-.068-.8-.202-1.181-.352-1.04-.41-2.12-1.193-2.72-1.975a59.034 59.034 0 0 0-.275-.357 4.019 4.019 0 0 1-.214-.306h-.001a7.349 7.349 0 0 1-.603-1.325 1.606 1.606 0 0 1-.043-.156.526.526 0 0 1-.01-.064.21.21 0 0 1 .004-.066l.032-.07a.431.431 0 0 1 .048-.056c.036-.036.083-.073.136-.112a3.7 3.7 0 0 1 .41-.248 6.76 6.76 0 0 1 1.086-.46c.548-.17.628-.19 1.156-.272.53-.083.82-.125 1.123-.126Zm-18.107 0c.277.003.58.043 1.169.122.791.106 1.904.512 2.553.932.052.034.095.062.128.086a.47.47 0 0 1 .084.073c.054.064.055.128.055.186 0 .098-.03.229-.078.378-.05.152-.12.333-.213.535a2.42 2.42 0 0 0-.04.095l-.012.03-.001.004v-.002l.002-.016-.01.048a1.602 1.602 0 0 1-.053.108c-.032.059-.078.136-.128.22-.1.168-.225.366-.322.509-.15.217-.422.52-.712.81-.291.288-.608.57-.85.74a6.751 6.751 0 0 1-2.76 1.136l-.485.076a9.789 9.789 0 0 1-1.235.041l-.11-.01a2.592 2.592 0 0 0-.328-.028c-.299-.003-1.118-.143-1.725-.292-.409-.1-1.136-.351-1.508-.52a7.77 7.77 0 0 1-.392-.185.434.434 0 0 1-.083-.054l-.048-.064a.136.136 0 0 1-.015-.056.514.514 0 0 1 .02-.121c.016-.056.043-.124.076-.198.065-.148.157-.324.25-.47.53-.821.853-1.235 1.397-1.785a7.64 7.64 0 0 1 2.142-1.558 6.705 6.705 0 0 1 2.218-.677c.485-.065.736-.098 1.014-.094Zm24.843-9.254c.381.003.777.02.981.046.968.128 1.193.168 1.841.34.186.05.309.086.385.115.037.014.071.031.098.05a.14.14 0 0 1 .06.113c0 .036-.011.08-.023.121a2.34 2.34 0 0 1-.055.16c-.046.12-.11.268-.18.423-.142.31-.317.652-.447.858-.118.186-.271.419-.406.617a6.983 6.983 0 0 1-.3.419c-.052.06-.171.21-.266.333a8.088 8.088 0 0 1-.64.685 9.1 9.1 0 0 1-.722.65c-.93.704-1.972 1.204-2.9 1.388-.819.161-1.283.194-2.058.142-.848-.056-1.451-.18-2.185-.448-.304-.111-.461-.185-.57-.285-.082-.074-.107-.182-.102-.306.004-.124.038-.284.096-.486.29-1.001.852-1.994 1.538-2.712.306-.32.917-.796 1.411-1.1.833-.512 1.967-.897 3.025-1.028.154-.02.375-.048.49-.065.169-.024.549-.033.929-.03Zm-31.413 0c.381 0 .767.01.922.032l.443.064c1.404.2 2.58.681 3.67 1.503.166.124.435.382.691.648.257.267.509.552.636.732.421.593.799 1.45.977 2.213a2.481 2.481 0 0 1 .051.326c.001.021.001.055-.007.083a.187.187 0 0 1-.041.067.394.394 0 0 1-.054.047c-.039.029-.09.06-.148.09-.115.06-.27.126-.442.19a7.364 7.364 0 0 1-1.134.324c-.176.032-.42.076-.54.096a7.83 7.83 0 0 1-.839.048c-.348.007-.714.004-.906-.014-1.62-.147-3.105-.896-4.437-2.231a10.025 10.025 0 0 1-1.975-2.746c-.092-.186-.163-.33-.213-.44a1.088 1.088 0 0 1-.092-.268.265.265 0 0 1 .006-.113.203.203 0 0 1 .06-.092.514.514 0 0 1 .175-.086c.535-.18 1.222-.314 2.24-.44.18-.023.575-.033.957-.033ZM44.51 15.58a.226.226 0 0 1 .089.08c.041.062.064.15.074.244.096.976.098 1.13.021 2.056-.061.75-.129 1.16-.29 1.75-.425 1.557-1.284 2.906-2.424 3.798-.436.342-.869.617-1.358.864-.967.488-1.797.695-2.785.696-.2 0-.33-.002-.414-.01-.08-.007-.148-.02-.196-.068a.357.357 0 0 1-.068-.108 1.266 1.266 0 0 1-.054-.155 5.596 5.596 0 0 1-.11-.505c-.118-.642-.084-1.756.074-2.468.367-1.65 1.63-3.331 3.34-4.462a13.623 13.623 0 0 1 1.832-.995c.112-.047.308-.133.437-.19.26-.113 1.08-.382 1.437-.47l.266-.068.065-.007a.18.18 0 0 1 .064.018Zm-24.801-.014c.066.01.15.032.249.06 1.791.49 3.266 1.232 4.595 2.311.428.348.732.661 1.107 1.143.398.51.555.753.797 1.235.306.61.432.96.57 1.601.079.372.085.467.086 1.162.002.737-.025 1.068-.125 1.477l-.06.254a.394.394 0 0 1-.05.133.236.236 0 0 1-.131.095.746.746 0 0 1-.187.026 6.917 6.917 0 0 1-1.036-.045c-.999-.146-1.913-.502-2.86-1.114-.452-.292-.758-.551-1.236-1.042a6.373 6.373 0 0 1-1.234-1.743c-.42-.845-.564-1.323-.812-2.68-.04-.217-.064-.723-.07-1.216-.007-.492.003-.993.037-1.202.016-.103.031-.189.05-.254.019-.063.048-.13.11-.17a.284.284 0 0 1 .2-.031Zm12.343-5.057a.829.829 0 0 1 .1.08c.05.045.113.108.182.183.14.15.31.348.465.542 1.359 1.708 2.049 3.54 1.973 5.268-.04.892-.173 1.463-.51 2.166a5.33 5.33 0 0 1-.668 1.094l-.315.4c-.108.137-.383.388-.637.6a6.876 6.876 0 0 1-.358.279c-.05.036-.096.067-.134.09a.525.525 0 0 1-.055.028.172.172 0 0 1-.07.015.314.314 0 0 1-.09-.021.77.77 0 0 1-.092-.041 1.99 1.99 0 0 1-.25-.173c-1.124-.905-1.898-2.056-2.192-3.267-.195-.806-.222-1.485-.096-2.388.077-.557.31-1.307.633-2.045.129-.296.397-.75.692-1.195a10.76 10.76 0 0 1 1.14-1.465c.034-.039.068-.075.098-.102a.465.465 0 0 1 .071-.05.12.12 0 0 1 .113.002Z"/><path fill="#306C7B" d="M73.504 43.128c-.277 0-.501-.032-.672-.096-.15-.043-.224-.139-.224-.288 0-.15.085-.256.256-.32.192-.085.448-.17.768-.256a2.393 2.393 0 0 0 1.28-.8c.363-.405.597-.97.704-1.696.213-1.6.405-3.21.576-4.832.17-1.643.32-3.2.448-4.672.128-1.493.213-2.816.256-3.968v-.512c0-.192-.01-.373-.032-.544a1.56 1.56 0 0 0-.128-.64c-.064-.213-.213-.395-.448-.544a3.114 3.114 0 0 0-1.024-.576 7.443 7.443 0 0 0-1.152-.32 1.416 1.416 0 0 1-.576-.224.581.581 0 0 1-.192-.416c0-.192.096-.31.288-.352.192-.043.437-.064.736-.064.256 0 .608.01 1.056.032.448.021.939.053 1.472.096.533.021 1.035.043 1.504.064.49.021.896.032 1.216.032.15 0 .288.053.416.16a.621.621 0 0 1 .256.384c.107.384.213.779.32 1.184.128.405.267.821.416 1.248l4.928 12.256c.064.128.16.203.288.224.15.021.256-.032.32-.16l5.696-12.256c.128-.49.235-.96.32-1.408.107-.47.203-.864.288-1.184.064-.277.192-.416.384-.416h1.216c.725 0 1.493-.043 2.304-.128.81-.107 1.43-.16 1.856-.16.15 0 .31.032.48.096.17.043.256.139.256.288a.43.43 0 0 1-.192.384c-.128.085-.33.181-.608.288-.235.085-.49.181-.768.288-.277.107-.533.213-.768.32a1.95 1.95 0 0 0-.8.608c-.192.235-.277.555-.256.96 0 1.515.032 2.901.096 4.16.064 1.237.117 2.421.16 3.552.064 1.13.139 2.261.224 3.392.085 1.13.16 2.336.224 3.616.043.619.267 1.11.672 1.472.405.341.981.587 1.728.736.299.064.523.139.672.224.17.085.256.213.256.384 0 .128-.075.224-.224.288-.15.064-.352.096-.608.096-.533 0-1.024-.021-1.472-.064L96.352 43a26.996 26.996 0 0 0-1.344-.032c-.427 0-.821.01-1.184.032-.363.021-.747.043-1.152.064-.405.043-.885.064-1.44.064-.235 0-.437-.032-.608-.096-.15-.043-.224-.139-.224-.288 0-.15.075-.277.224-.384.17-.107.405-.181.704-.224.683-.107 1.152-.32 1.408-.64.256-.341.384-.864.384-1.568a211.698 211.698 0 0 0-.096-4.096 104.165 104.165 0 0 0-.128-3.712 809.487 809.487 0 0 1-.192-3.904c0-.192-.053-.277-.16-.256-.085 0-.181.096-.288.288l-6.912 14.848c-.064.17-.181.245-.352.224-.17 0-.277-.075-.32-.224a159.925 159.925 0 0 0-2.912-7.36c-1.003-2.432-2.059-4.97-3.168-7.616-.064-.128-.16-.181-.288-.16-.107.021-.17.107-.192.256-.15 1.344-.288 2.645-.416 3.904a114.11 114.11 0 0 0-.256 3.744 111.421 111.421 0 0 0-.064 3.84c0 .597.181 1.12.544 1.568.384.427.928.715 1.632.864.32.064.565.139.736.224.192.085.288.213.288.384 0 .128-.085.224-.256.288-.17.064-.384.096-.64.096-.576 0-1.013-.021-1.312-.064a41.919 41.919 0 0 1-.8-.064h-.992c-.405 0-.768.01-1.088.032-.299.021-.608.043-.928.064-.299.021-.65.032-1.056.032Zm33.686.352c-1.152 0-2.176-.288-3.072-.864-.874-.597-1.568-1.419-2.08-2.464-.512-1.067-.768-2.293-.768-3.68 0-1.259.288-2.41.864-3.456a7.011 7.011 0 0 1 2.368-2.496 5.799 5.799 0 0 1 3.232-.96c.875 0 1.654.181 2.336.544a3.773 3.773 0 0 1 1.632 1.472c.406.619.608 1.333.608 2.144 0 .704-.33 1.056-.992 1.056h-6.624c-.298 0-.512.085-.64.256-.128.17-.192.48-.192.928 0 .939.214 1.803.64 2.592a5.266 5.266 0 0 0 1.696 1.856c.704.47 1.483.704 2.336.704.64 0 1.216-.117 1.728-.352a5.344 5.344 0 0 0 1.472-1.056 1.97 1.97 0 0 1 .16-.192.344.344 0 0 1 .192-.064c.192 0 .288.117.288.352 0 .341-.149.747-.448 1.216a5.69 5.69 0 0 1-1.152 1.248c-.448.363-.981.65-1.6.864a5.378 5.378 0 0 1-1.984.352Zm-2.464-9.792h2.56c.555 0 .992-.01 1.312-.032.32-.021.619-.064.896-.128a.386.386 0 0 0 .224-.256c.043-.15.064-.33.064-.544 0-.597-.245-1.099-.736-1.504-.49-.427-1.077-.64-1.76-.64-.469 0-.938.139-1.408.416-.448.277-.821.63-1.12 1.056-.298.405-.437.821-.416 1.248 0 .256.128.384.384.384Zm9.869 9.408a.989.989 0 0 1-.448-.096c-.128-.043-.192-.139-.192-.288 0-.15.064-.267.192-.352.149-.085.33-.16.544-.224.298-.107.586-.224.864-.352.298-.15.448-.437.448-.864v-7.04c0-.533-.064-.992-.192-1.376-.128-.405-.438-.65-.928-.736a.471.471 0 0 1-.224-.128c-.064-.064-.096-.17-.096-.32 0-.256.096-.405.288-.448a13.35 13.35 0 0 0 1.472-.48c.426-.17.821-.352 1.184-.544.362-.213.746-.437 1.152-.672l.128-.064a.344.344 0 0 1 .192-.064c.149 0 .224.085.224.256 0 .17-.032.48-.096.928-.043.427-.064.79-.064 1.088 0 .213.021.341.064.384h.064c.533-.533 1.194-1.024 1.984-1.472.81-.448 1.781-.672 2.912-.672.725 0 1.354.192 1.888.576.533.363.96.939 1.28 1.728h.096a8.307 8.307 0 0 1 2.272-1.664c.853-.427 1.792-.64 2.816-.64.704 0 1.301.203 1.792.608.49.405.864.95 1.12 1.632.277.683.416 1.43.416 2.24v6.912c0 .427.138.704.416.832.277.128.576.245.896.352.213.064.384.139.512.224a.401.401 0 0 1 .192.352.316.316 0 0 1-.16.288c-.086.064-.235.096-.448.096-.427 0-.779-.021-1.056-.064-.278-.021-.544-.043-.8-.064a11.922 11.922 0 0 0-.96-.032c-.363 0-.683.01-.96.032-.256.021-.523.043-.8.064-.278.043-.63.064-1.056.064a.989.989 0 0 1-.448-.096.314.314 0 0 1-.16-.288c0-.17.064-.288.192-.352.128-.085.298-.16.512-.224.32-.085.597-.192.832-.32.234-.15.352-.416.352-.8v-6.688c0-.512-.107-.981-.32-1.408-.192-.448-.459-.8-.8-1.056a1.782 1.782 0 0 0-1.152-.416c-.448 0-.875.064-1.28.192-.406.128-.8.341-1.184.64-.491.384-.736 1.035-.736 1.952v6.72c0 .427.128.715.384.864.277.128.576.235.896.32.192.064.352.139.48.224.149.085.224.203.224.352a.316.316 0 0 1-.16.288c-.107.064-.256.096-.448.096-.427 0-.779-.021-1.056-.064-.278-.021-.544-.043-.8-.064a11.922 11.922 0 0 0-.96-.032c-.363 0-.683.01-.96.032-.256.021-.523.043-.8.064-.278.043-.63.064-1.056.064a.915.915 0 0 1-.416-.096c-.128-.064-.192-.16-.192-.288 0-.17.074-.288.224-.352.149-.085.309-.16.48-.224.32-.085.597-.192.832-.32.256-.15.384-.416.384-.8v-6.688c0-.512-.107-.981-.32-1.408a2.838 2.838 0 0 0-.8-1.056 1.782 1.782 0 0 0-1.152-.416 4.43 4.43 0 0 0-1.28.192c-.406.128-.8.341-1.184.64-.47.341-.704.981-.704 1.92v6.752c0 .405.117.683.352.832.234.128.512.245.832.352.17.064.33.139.48.224.149.064.224.181.224.352 0 .128-.064.224-.192.288a.803.803 0 0 1-.416.096c-.427 0-.779-.021-1.056-.064a54.082 54.082 0 0 1-.768-.064 10.727 10.727 0 0 0-.928-.032c-.363 0-.683.01-.96.032-.278.021-.566.043-.864.064-.278.043-.63.064-1.056.064Zm31.363.352c-1.216 0-2.326-.277-3.328-.832a6.449 6.449 0 0 1-2.336-2.336c-.576-.981-.864-2.101-.864-3.36 0-.939.181-1.845.544-2.72a7.771 7.771 0 0 1 1.536-2.368 7.396 7.396 0 0 1 2.304-1.664 6.334 6.334 0 0 1 2.816-.64c1.258 0 2.4.31 3.424.928a6.818 6.818 0 0 1 2.432 2.368c.597.981.896 2.059.896 3.232 0 1.28-.278 2.485-.832 3.616-.555 1.13-1.387 2.048-2.496 2.752-1.088.683-2.454 1.024-4.096 1.024Zm.672-1.12c.618 0 1.173-.117 1.664-.352.49-.256.874-.64 1.152-1.152.256-.49.426-1.088.512-1.792.106-.725.16-1.461.16-2.208 0-1.067-.171-2.07-.512-3.008-.342-.939-.811-1.696-1.408-2.272-.598-.576-1.302-.864-2.112-.864-.491 0-.939.085-1.344.256-.384.15-.736.416-1.056.8-.406.49-.672 1.13-.8 1.92a15.42 15.42 0 0 0-.192 2.528c0 1.024.17 2.005.512 2.944.341.939.8 1.707 1.376 2.304.597.597 1.28.896 2.048.896Zm9.217.768c-.192 0-.352-.032-.48-.096a.314.314 0 0 1-.16-.288c0-.17.064-.288.192-.352.149-.085.331-.16.544-.224.448-.107.757-.256.928-.448.192-.192.288-.448.288-.768v-7.04c0-.533-.075-.981-.224-1.344-.149-.384-.469-.63-.96-.736a.566.566 0 0 1-.256-.16.518.518 0 0 1-.096-.32c0-.235.107-.384.32-.448.597-.17 1.237-.405 1.92-.704.683-.32 1.237-.597 1.664-.832.128-.085.245-.15.352-.192a.733.733 0 0 1 .224-.064c.149 0 .224.085.224.256 0 .085-.011.267-.032.544 0 .277-.011.587-.032.928-.021.341-.032.672-.032.992 0 .085.021.128.064.128a9.803 9.803 0 0 1 1.12-1.184 5.76 5.76 0 0 1 1.344-.864c.469-.235.917-.352 1.344-.352.555 0 .981.117 1.28.352.299.213.448.501.448.864 0 .235-.075.512-.224.832a2.53 2.53 0 0 1-.544.8c-.213.213-.448.32-.704.32-.149 0-.309-.032-.48-.096a13.47 13.47 0 0 0-.544-.256 4.17 4.17 0 0 0-.544-.224 1.136 1.136 0 0 0-.512-.128c-.533 0-1.024.192-1.472.576-.448.384-.672 1.13-.672 2.24v6.016a.92.92 0 0 0 .416.8c.277.192.693.373 1.248.544.235.064.416.139.544.224a.33.33 0 0 1 .192.32c0 .256-.203.384-.608.384a12.5 12.5 0 0 1-1.664-.096 15.965 15.965 0 0 0-1.504-.064c-.363 0-.683.01-.96.032-.277.021-.565.043-.864.064a7.847 7.847 0 0 1-1.088.064Zm11.466 0a.989.989 0 0 1-.448-.096.314.314 0 0 1-.16-.288c0-.17.064-.288.192-.352.149-.085.309-.15.48-.192.49-.128.853-.267 1.088-.416.234-.15.352-.416.352-.8V34.04c0-.64-.107-1.152-.32-1.536-.214-.405-.587-.65-1.12-.736a.485.485 0 0 1-.256-.128.793.793 0 0 1-.064-.352c0-.256.096-.395.288-.416.938-.213 1.738-.49 2.4-.832.682-.363 1.194-.65 1.536-.864.234-.15.405-.224.512-.224.17 0 .256.085.256.256 0 .235-.032.608-.096 1.12a73.011 73.011 0 0 1-.16 1.664 23.26 23.26 0 0 0-.064 1.664v7.296c0 .341.117.597.352.768.234.17.597.32 1.088.448.17.043.32.107.448.192.149.064.224.181.224.352 0 .256-.192.384-.576.384-.406 0-.768-.021-1.088-.064-.32-.021-.63-.043-.928-.064a13.211 13.211 0 0 0-.992-.032c-.363 0-.694.01-.992.032l-.896.064c-.278.043-.63.064-1.056.064Zm2.88-16.352c-.534 0-.992-.181-1.376-.544a1.933 1.933 0 0 1-.544-1.376c0-.555.181-1.013.544-1.376a1.877 1.877 0 0 1 1.376-.576c.554 0 1.024.192 1.408.576.384.363.576.821.576 1.376 0 .533-.192.992-.576 1.376-.384.363-.854.544-1.408.544Zm8.054 16.704c-.448 0-.885-.15-1.312-.448a3.551 3.551 0 0 1-1.056-1.056c-.277-.448-.416-.885-.416-1.312 0-.704.192-1.27.576-1.696.405-.427 1.024-.81 1.856-1.152l3.104-1.312c.427-.17.683-.32.768-.448.085-.15.139-.437.16-.864l.064-1.952c.021-.576-.117-1.056-.416-1.44-.299-.384-.736-.576-1.312-.576-.299 0-.608.064-.928.192a2.637 2.637 0 0 0-.736.384.673.673 0 0 0-.224.352c-.021.15-.032.31-.032.48v.384c.021.128.032.235.032.32 0 .128-.149.288-.448.48-.277.17-.608.33-.992.48-.363.15-.672.224-.928.224a.518.518 0 0 1-.32-.096.518.518 0 0 1-.096-.32c0-.341.107-.693.32-1.056.235-.384.576-.768 1.024-1.152a10.232 10.232 0 0 1 1.664-1.184 9.526 9.526 0 0 1 1.792-.832c.597-.192 1.12-.288 1.568-.288.896 0 1.621.31 2.176.928.576.597.843 1.376.8 2.336l-.16 7.232c-.021.47.075.853.288 1.152.213.299.48.448.8.448.491 0 .875-.128 1.152-.384.085-.085.16-.128.224-.128.107 0 .192.032.256.096.085.064.128.15.128.256 0 .256-.149.523-.448.8-.363.363-.757.64-1.184.832-.405.213-.8.32-1.184.32-1.067 0-1.92-.576-2.56-1.728h-.096c-.704.597-1.365 1.035-1.984 1.312a4.648 4.648 0 0 1-1.92.416Zm1.664-1.728c.363 0 .661-.053.896-.16.256-.128.48-.299.672-.512a.873.873 0 0 0 .224-.384c.064-.17.107-.427.128-.768l.064-1.824c.021-.213.011-.363-.032-.448-.043-.107-.128-.16-.256-.16a.871.871 0 0 0-.192.032 2.507 2.507 0 0 0-.352.128c-.96.363-1.632.747-2.016 1.152-.384.384-.576.81-.576 1.28 0 .576.149 1.003.448 1.28.32.256.651.384.992.384Z"/></svg>