<svg xmlns="http://www.w3.org/2000/svg" width="160" height="47" fill="none"><g clip-path="url(#a)"><path fill="#000" d="M154.074 46.99H5.926C2.607 46.99 0 44.408 0 41.119V5.88C0 2.591 2.607.007 5.926.007h148.148C157.393.007 160 2.591 160 5.88v35.238c0 3.289-2.607 5.873-5.926 5.873Z"/><path fill="#A6A6A6" d="M154.074.947c2.726 0 4.978 2.232 4.978 4.933v35.238c0 2.701-2.252 4.933-4.978 4.933H5.926C3.2 46.051.948 43.82.948 41.118V5.88C.948 3.18 3.2.947 5.926.947h148.148Zm0-.94H5.926C2.607.007 0 2.71 0 5.88v35.238c0 3.289 2.607 5.873 5.926 5.873h148.148c3.319 0 5.926-2.584 5.926-5.873V5.88c0-3.171-2.607-5.873-5.926-5.873Z"/><path fill="#fff" stroke="#fff" stroke-miterlimit="10" stroke-width=".379" d="M56.179 11.986c0 .94-.237 1.762-.83 2.35-.71.704-1.54 1.057-2.607 1.057-1.067 0-1.896-.353-2.607-1.057-.712-.705-1.067-1.527-1.067-2.584 0-1.058.355-1.88 1.067-2.585.71-.704 1.54-1.057 2.607-1.057.474 0 .948.118 1.422.353s.83.47 1.067.822l-.593.587c-.474-.587-1.066-.822-1.896-.822-.711 0-1.422.235-1.896.822-.593.47-.83 1.175-.83 1.997 0 .822.237 1.527.83 1.997.592.47 1.185.822 1.896.822.83 0 1.422-.235 2.015-.822.355-.352.592-.822.592-1.41h-2.607v-.94h3.437v.47Zm5.452-2.936h-3.2v2.232h2.963v.822H58.43v2.232h3.2v.94h-4.148V8.227h4.148v.822Zm3.91 6.225h-.947V9.05h-2.015v-.822h4.978v.822h-2.015v6.225Zm5.453 0V8.228h.948v7.047h-.948Zm4.978 0h-.949V9.05H73.01v-.822h4.859v.822h-2.015v6.225h.119Zm11.259-.94c-.711.705-1.54 1.058-2.608 1.058-1.066 0-1.896-.353-2.607-1.057-.711-.705-1.067-1.527-1.067-2.584 0-1.058.356-1.88 1.067-2.585.711-.704 1.54-1.057 2.607-1.057 1.067 0 1.897.353 2.608 1.057.71.705 1.067 1.527 1.067 2.585 0 1.057-.356 1.879-1.067 2.584Zm-4.504-.587c.474.47 1.185.823 1.896.823.712 0 1.423-.235 1.897-.823.474-.47.83-1.174.83-1.996 0-.823-.238-1.527-.83-1.997-.474-.47-1.185-.822-1.897-.822-.71 0-1.422.234-1.896.822a2.821 2.821 0 0 0-.83 1.997c0 .822.237 1.526.83 1.996Zm6.874 1.527V8.228h1.067l3.437 5.52v-5.52h.948v7.047h-.948L90.43 9.52v5.755h-.83Z"/><path fill="#fff" d="M80.71 25.615c-2.844 0-5.096 2.115-5.096 5.051 0 2.819 2.252 5.05 5.096 5.05 2.845 0 5.097-2.114 5.097-5.05 0-3.054-2.252-5.05-5.097-5.05Zm0 7.988c-1.54 0-2.844-1.293-2.844-3.054 0-1.762 1.303-3.054 2.844-3.054 1.54 0 2.845 1.174 2.845 3.054 0 1.761-1.304 3.053-2.845 3.053Zm-11.022-7.988c-2.844 0-5.096 2.115-5.096 5.051 0 2.819 2.252 5.05 5.096 5.05 2.844 0 5.096-2.114 5.096-5.05 0-3.054-2.252-5.05-5.096-5.05Zm0 7.988c-1.54 0-2.844-1.293-2.844-3.054 0-1.762 1.303-3.054 2.844-3.054 1.54 0 2.844 1.174 2.844 3.054 0 1.761-1.303 3.053-2.844 3.053Zm-13.156-6.46v2.113h5.097c-.119 1.175-.593 2.115-1.185 2.702-.712.705-1.897 1.527-3.912 1.527-3.2 0-5.57-2.467-5.57-5.638s2.489-5.638 5.57-5.638c1.66 0 2.963.705 3.912 1.527l1.54-1.527c-1.303-1.175-2.963-2.114-5.333-2.114-4.267 0-7.94 3.524-7.94 7.752s3.673 7.752 7.94 7.752c2.37 0 4.03-.704 5.452-2.231 1.422-1.41 1.896-3.407 1.896-4.934 0-.47 0-.94-.118-1.292h-7.349Zm53.808 1.644c-.474-1.175-1.659-3.172-4.267-3.172-2.607 0-4.741 1.997-4.741 5.051 0 2.819 2.134 5.05 4.978 5.05 2.252 0 3.674-1.409 4.148-2.231l-1.659-1.175c-.592.823-1.304 1.41-2.489 1.41-1.185 0-1.896-.47-2.489-1.527l6.756-2.819-.237-.587Zm-6.874 1.644c0-1.88 1.541-2.936 2.607-2.936.83 0 1.659.47 1.896 1.057l-4.503 1.88Zm-5.57 4.816h2.251V20.565h-2.252v14.682Zm-3.556-8.575c-.593-.587-1.54-1.174-2.726-1.174-2.489 0-4.86 2.232-4.86 5.05 0 2.82 2.252 4.934 4.86 4.934 1.185 0 2.133-.587 2.607-1.175h.119v.705c0 1.88-1.067 2.937-2.726 2.937-1.304 0-2.252-.94-2.489-1.762l-1.896.822c.592 1.292 2.014 2.936 4.503 2.936 2.608 0 4.741-1.527 4.741-5.168V25.85H94.34v.822Zm-2.608 6.93c-1.54 0-2.844-1.291-2.844-3.053s1.304-3.054 2.844-3.054c1.541 0 2.726 1.292 2.726 3.054 0 1.761-1.185 3.053-2.726 3.053Zm28.919-13.037h-5.333v14.682h2.251v-5.52h3.082c2.489 0 4.859-1.762 4.859-4.582 0-2.819-2.37-4.58-4.859-4.58Zm.118 7.047h-3.2v-5.05h3.2c1.66 0 2.608 1.409 2.608 2.466-.119 1.292-1.067 2.584-2.608 2.584Zm13.63-2.114c-1.659 0-3.318.705-3.911 2.232l2.015.822c.474-.822 1.185-1.057 2.015-1.057 1.185 0 2.251.704 2.37 1.879v.117c-.356-.235-1.304-.587-2.252-.587-2.133 0-4.267 1.175-4.267 3.289 0 1.997 1.778 3.289 3.675 3.289 1.54 0 2.251-.705 2.844-1.41h.119v1.175h2.133v-5.638c-.237-2.584-2.252-4.111-4.741-4.111Zm-.237 8.104c-.711 0-1.778-.352-1.778-1.291 0-1.175 1.304-1.527 2.371-1.527.948 0 1.422.234 2.014.47-.237 1.409-1.422 2.348-2.607 2.348Zm12.445-7.752-2.489 6.343h-.119l-2.607-6.343h-2.371l3.911 8.927-2.251 4.933h2.251l6.045-13.86h-2.37Zm-19.912 9.397h2.252V20.565h-2.252v14.682Z"/><path fill="url(#b)" d="M12.327 8.816c-.355.352-.474.94-.474 1.644V36.42c0 .705.237 1.292.593 1.644l.118.118 14.697-14.565v-.235L12.327 8.816Z"/><path fill="url(#c)" d="m31.998 28.549-4.86-4.816v-.353l4.86-4.816.119.118 5.807 3.289c1.66.94 1.66 2.466 0 3.406l-5.926 3.172Z"/><path fill="url(#d)" d="M32.12 28.433 27.14 23.5 12.327 38.182c.592.588 1.422.588 2.488.118l17.304-9.867Z"/><path fill="url(#e)" d="M32.12 18.566 14.814 8.817c-1.066-.587-1.896-.47-2.489.118L27.142 23.5l4.978-4.934Z"/><path fill="#000" d="m32 28.313-17.185 9.632c-.948.587-1.777.47-2.37 0l-.119.117.12.117c.592.47 1.421.588 2.37 0L32 28.313Z" opacity=".2"/><path fill="#000" d="M12.327 37.947c-.355-.352-.474-.94-.474-1.644v.117c0 .705.237 1.292.593 1.645v-.118h-.119Zm25.6-12.92-5.926 3.289.119.117 5.807-3.289c.83-.47 1.185-1.057 1.185-1.644 0 .587-.474 1.057-1.185 1.527Z" opacity=".12"/><path fill="#fff" d="m14.816 8.938 23.111 13.038c.712.47 1.185.94 1.185 1.527 0-.588-.355-1.175-1.185-1.645L14.817 8.82c-1.66-.94-2.964-.235-2.964 1.645v.117c0-1.762 1.304-2.584 2.963-1.644Z" opacity=".25"/></g><defs><linearGradient id="b" x1="25.838" x2="6.126" y1="10.237" y2="30.126" gradientUnits="userSpaceOnUse"><stop stop-color="#00A0FF"/><stop offset=".007" stop-color="#00A1FF"/><stop offset=".26" stop-color="#00BEFF"/><stop offset=".512" stop-color="#00D2FF"/><stop offset=".76" stop-color="#00DFFF"/><stop offset="1" stop-color="#00E3FF"/></linearGradient><linearGradient id="c" x1="40.097" x2="11.42" y1="23.499" y2="23.499" gradientUnits="userSpaceOnUse"><stop stop-color="#FFE000"/><stop offset=".409" stop-color="#FFBD00"/><stop offset=".775" stop-color="orange"/><stop offset="1" stop-color="#FF9C00"/></linearGradient><linearGradient id="d" x1="29.425" x2="2.695" y1="26.197" y2="53.168" gradientUnits="userSpaceOnUse"><stop stop-color="#FF3A44"/><stop offset="1" stop-color="#C31162"/></linearGradient><linearGradient id="e" x1="8.649" x2="20.586" y1=".215" y2="12.259" gradientUnits="userSpaceOnUse"><stop stop-color="#32A071"/><stop offset=".069" stop-color="#2DA771"/><stop offset=".476" stop-color="#15CF74"/><stop offset=".801" stop-color="#06E775"/><stop offset="1" stop-color="#00F076"/></linearGradient><clipPath id="a"><path fill="#fff" d="M0 0h160v47H0z"/></clipPath></defs></svg>