<svg width="254" height="251" viewBox="0 0 254 251" fill="none" xmlns="http://www.w3.org/2000/svg">
<path d="M127.183 2.09808e-05C131.51 -0.00247392 136.919 0.213224 139.811 0.503927C142.374 0.762166 144.285 0.98435 145.23 1.13674H145.231C145.741 1.21918 146.72 1.36101 147.404 1.45119C148.101 1.54305 149.201 1.7207 149.855 1.8467L153.059 2.46486L154.347 2.72072C167.651 5.4403 180.7 10.4867 193.06 17.6905C198.404 20.8056 204.414 24.9427 208.511 28.3145L209.304 28.9785L210.576 30.0479C210.984 30.3864 211.344 30.6797 211.555 30.8457C211.868 31.0922 212.693 31.8702 213.746 32.8887C214.811 33.9188 216.134 35.2218 217.459 36.541C220.097 39.1684 222.775 41.8944 223.404 42.6446C223.981 43.3317 224.977 44.517 225.618 45.2783C229.027 49.3268 233.744 55.9502 236.476 60.5215C240.125 66.6295 243.127 72.6694 245.48 78.6416C246.04 80.0614 246.567 81.3921 246.654 81.6035C247.204 82.9396 249.063 88.8443 249.752 91.4307C250.732 95.1101 251.427 98.1803 251.953 101.16C253.606 110.519 253.935 114.614 253.929 125.7C253.925 132.272 253.865 134.556 253.535 137.805L253.376 139.272C253.288 140.043 253.152 141.341 253.072 142.155C252.715 145.802 251.495 152.29 250.314 156.841C249.902 158.43 249.074 161.164 248.268 163.676C247.566 165.863 246.868 167.921 246.474 168.91L246.324 169.266C246.253 169.423 245.826 170.495 245.371 171.663C244.918 172.826 244.317 174.278 244.033 174.894C243.758 175.49 243.343 176.434 243.111 176.985C242.056 179.503 238.839 185.581 236.631 189.239C233.797 193.934 229.496 200.015 226.593 203.427C226.152 203.945 225.301 205.005 224.704 205.777C223.917 206.796 221.098 209.725 218.156 212.666C215.207 215.615 212.078 218.631 210.647 219.833C207.827 222.203 202.832 226.094 200.578 227.675C198.953 228.815 196.404 230.508 194.684 231.594L194.002 232.019C189.504 234.782 188.286 235.456 183.445 237.866H183.444C171.717 243.704 159.118 247.629 146.393 249.407C145.491 249.533 144.298 249.704 143.741 249.787C143.31 249.851 142.464 249.947 141.631 250.028L140.819 250.104C139.791 250.192 138.391 250.331 137.711 250.412C135.985 250.618 132.346 250.771 128.885 250.835C125.437 250.899 122.081 250.877 120.942 250.72C120.5 250.659 119.482 250.599 118.691 250.59V250.589C117.878 250.581 116.731 250.51 116.129 250.427C115.845 250.388 115.411 250.334 114.941 250.278L113.537 250.122C110.298 249.785 108.813 249.614 107.963 249.478C104.449 248.913 100.256 248.124 98.2393 247.647C89.1537 245.5 82.9498 243.469 75.6523 240.249C71.848 238.571 64.1065 234.58 61.8125 233.11C61.3539 232.817 59.9037 231.9 58.5898 231.072C53.3651 227.783 46.4522 222.561 42.3477 218.803C41.8795 218.374 41.2929 217.841 40.7256 217.329L39.2178 215.977C37.5755 214.518 35.3566 212.246 32.0225 208.613C29.6512 206.03 28.4538 204.6 25.7158 201.086C16.7626 189.596 9.83068 176.301 5.50977 162.332C5.08483 160.957 4.6337 159.5 4.50781 159.094C3.70653 156.509 2.1469 149.51 1.625 146.168C1.53127 145.567 1.35015 144.406 1.22266 143.59C1.00491 142.193 0.869305 141.109 0.499023 137.787C0.162872 134.772 -0.00203268 129.734 0 124.825C0.00204313 119.919 0.170635 115.095 0.510742 112.51C0.594704 111.871 0.733056 110.68 0.817383 109.867L0.919922 108.937C1.48089 104.175 2.69989 97.8216 3.97461 93.0703C4.23992 92.0819 4.58944 90.7812 4.75098 90.1797L5.07129 89.0303C6.76596 83.1558 9.81158 75.4061 12.7549 69.5283C16.0845 62.8793 20.4964 55.7797 24.6465 50.3946C25.2756 49.5783 26.2207 48.3489 26.7461 47.6621C27.2791 46.9654 28.1058 45.969 28.5898 45.4405L29.0068 44.9707C29.4833 44.4222 30.1048 43.676 30.5762 43.084C31.4056 42.0422 33.9724 39.3806 36.6182 36.7442C39.268 34.1037 42.0465 31.44 43.3125 30.3916C53.1774 22.222 61.9707 16.6179 72.8848 11.5459C81.5748 7.50778 92.0509 4.18107 101.701 2.39455C102.69 2.21139 103.81 1.99842 104.192 1.92092C105.382 1.67991 109.415 1.10335 111.891 0.81838C117.013 0.229032 121.239 0.00346831 127.183 2.09808e-05ZM134.199 11.9697C131.893 11.7484 122.31 11.8033 119.098 12.0596C113.975 12.468 113.283 12.5417 109.05 13.1406C107.109 13.4153 104.215 13.9222 103.236 14.1563C103.06 14.1984 102.768 14.2636 102.439 14.334L101.422 14.5449C95.2493 15.7846 86.0995 18.7464 79.8887 21.5156C78.4658 22.1499 71.1798 25.7971 69.6904 26.6211C66.3649 28.4612 61.1888 31.8174 57.8721 34.2842C56.6099 35.2231 54.9848 36.4882 53.6211 37.5801C52.9395 38.1259 52.3245 38.6273 51.8545 39.0215C51.4901 39.3271 51.2325 39.5521 51.0938 39.6826L50.9951 39.7813C50.8865 39.9045 50.6085 40.1656 50.2764 40.4668C49.9331 40.7781 49.5038 41.1567 49.0713 41.5293V41.5303C46.7718 43.5109 44.0147 46.2238 42.4346 48.0576C41.6514 48.9664 40.3668 50.3798 39.5752 51.2031C38.7984 52.0108 37.7672 53.1908 37.291 53.8155C36.7969 54.4632 35.9413 55.5566 35.3877 56.2471C33.0078 59.2153 29.9127 63.7672 27.1436 68.3789C25.294 71.4587 21.6959 78.6522 20.5352 81.5869C20.2633 82.2744 19.7629 83.54 19.4229 84.3994C17.0809 90.3211 15.1306 97.3554 13.626 105.324C13.2241 107.454 12.4842 113.157 12.3066 115.503C12.2157 116.706 12.059 118.781 11.958 120.113C11.6291 124.459 12.0792 134.663 12.8164 139.531C12.9534 140.435 13.1395 141.702 13.2305 142.349C13.4103 143.623 13.4549 143.865 14.2256 147.711C15.3622 153.38 17.2932 160.064 19.2109 164.971C20.0271 167.059 21.3498 170.276 21.7363 171.116C22.3205 172.387 25.4213 178.575 25.8252 179.279C26.0238 179.626 26.4949 180.464 26.874 181.144H26.875C27.6795 182.584 27.5442 182.363 29.4922 185.432C31.1157 187.989 33.5005 191.404 35.0635 193.411C35.5871 194.084 36.2135 194.894 36.4561 195.212V195.213C36.6842 195.513 37.5222 196.496 38.3223 197.4C39.1214 198.304 40.4114 199.782 41.1895 200.687C42.9902 202.779 48.4058 208.111 50.7451 210.094C56.1335 214.661 59.2896 217.07 63.709 219.995C70.3905 224.417 74.1214 225.98 79.3516 226.608C80.1706 226.707 81.2001 226.849 81.6426 226.925L81.8057 226.947C82.2343 226.995 82.9945 227.009 83.8848 226.985C84.8863 226.959 86.0012 226.887 86.8877 226.779C90.6121 226.327 93.0772 225.609 96.1934 224.071C98.4808 222.943 99.9865 221.969 102.191 220.19C105.282 217.697 107.813 214.691 110.846 209.885C111.577 208.725 113.537 204.696 114.334 202.702C115.715 199.246 117.796 192.636 118.442 189.656C119.169 186.311 119.464 184.81 119.807 182.729L120.138 180.647C120.442 178.655 120.667 176.931 120.822 175.415C120.91 174.553 121.058 173.214 121.15 172.438C121.24 171.679 121.376 169.934 121.451 168.563C121.526 167.185 121.68 164.861 121.792 163.397C121.928 161.633 121.995 157.612 121.995 151.091C121.995 146.587 121.99 144.163 121.953 142.8C121.915 141.408 121.84 141.209 121.768 141.063C121.652 140.831 121.388 140.447 120.881 139.816C120.631 139.506 120.329 139.142 119.965 138.717L118.683 137.244C118.076 136.557 117.018 135.31 116.327 134.47C115.645 133.64 114.483 132.299 113.749 131.495V131.494C113.006 130.68 111.842 129.364 111.16 128.565C108.786 125.785 106.48 123.144 104.858 121.347C103.956 120.346 102.533 118.758 101.696 117.818C100.862 116.88 99.521 115.388 98.7188 114.503C97.4684 113.125 96.6689 112.088 96.2852 111.143C95.8811 110.147 95.9485 109.284 96.3154 108.312C96.6453 107.436 97.3263 106.663 98.125 106.112C98.9236 105.561 99.8874 105.199 100.822 105.201C101.183 105.202 101.532 105.236 101.928 105.392C102.312 105.543 102.712 105.798 103.202 106.194C104.174 106.98 105.618 108.414 108.163 110.993C110.828 113.694 114.099 117.102 115.433 118.569L116.922 120.197C118.346 121.741 119.566 123.027 120.512 123.984C121.142 124.622 121.645 125.108 122.003 125.427C122.014 125.236 122.024 124.995 122.032 124.69C122.065 123.463 122.071 121.289 122.069 117.463C122.067 111.518 122.139 104.183 122.24 98.2354C122.291 95.2615 122.348 92.6323 122.407 90.6963C122.437 89.7288 122.467 88.9318 122.496 88.3506C122.511 88.0605 122.525 87.8205 122.54 87.6387C122.553 87.4782 122.571 87.3117 122.6 87.2071C122.831 86.374 123.149 85.7046 123.643 85.166C124.137 84.6271 124.773 84.2559 125.577 83.9619C126.081 83.7776 126.468 83.6547 126.905 83.6572C127.329 83.6598 127.765 83.7803 128.372 83.9678C129.005 84.1632 129.531 84.4322 129.972 84.8311C130.412 85.2291 130.74 85.7317 131.015 86.3535L131.357 87.1309L131.4 87.2276V87.3321L131.446 106.85C131.461 112.999 131.486 117.891 131.52 121.257C131.536 122.94 131.555 124.24 131.575 125.124C131.579 125.27 131.584 125.405 131.588 125.527C131.749 125.379 131.934 125.206 132.14 125.009C132.928 124.254 134.012 123.176 135.23 121.936C137.668 119.455 140.638 116.336 142.862 113.88L143.912 112.747C145.103 111.482 146.639 109.902 147.793 108.763C150.219 106.367 150.742 105.903 151.664 105.563C152.315 105.324 152.89 105.197 153.472 105.218C154.055 105.239 154.606 105.406 155.211 105.692C156.034 106.082 156.68 106.619 157.116 107.309C157.553 107.998 157.76 108.809 157.757 109.717C157.754 110.481 157.669 111.086 157.343 111.728C157.108 112.19 156.756 112.654 156.263 113.209L155.722 113.798C155.009 114.552 154.017 115.692 153.522 116.321C153.004 116.982 151.972 118.155 151.22 118.938C150.486 119.7 149.318 121.025 148.632 121.874C148.02 122.631 147.217 123.548 146.711 124.067L146.514 124.264C146.09 124.672 145.335 125.531 144.851 126.161C144.342 126.823 143.297 128.031 142.521 128.855C141.762 129.663 140.572 131.025 139.886 131.874C139.281 132.622 138.579 133.437 138.205 133.821L138.066 133.958C137.819 134.187 137.079 135.037 136.424 135.856C135.762 136.684 134.572 138.048 133.772 138.894C133.181 139.519 132.807 139.879 132.528 140.265C132.274 140.618 132.108 140.987 132.001 141.603C131.891 142.239 131.846 143.124 131.838 144.503C131.83 145.877 131.858 147.708 131.884 150.227C131.972 158.739 132.136 163.838 132.435 167.456C132.991 174.193 133.084 175.111 133.527 178.367C135.06 189.626 137.769 199.201 141.543 206.746C144.366 212.391 148.814 217.894 153.105 221.076C157.367 224.236 161.709 225.997 167.016 226.716C170.024 227.123 171.335 227.09 175.737 226.469C180.743 225.762 185.67 223.488 192.827 218.517C193.69 217.917 194.608 217.279 194.868 217.1L195.434 216.686C197.105 215.431 200.985 212.349 201.784 211.625C202.347 211.115 203.334 210.279 203.984 209.763C204.784 209.127 206.912 207.075 209.04 204.934C211.166 202.794 213.236 200.622 213.925 199.759C214.254 199.346 214.587 198.944 214.856 198.628C214.991 198.47 215.113 198.331 215.211 198.223C215.3 198.124 215.394 198.025 215.465 197.967V197.966C215.468 197.963 215.481 197.951 215.504 197.927C215.533 197.896 215.571 197.855 215.618 197.803C215.712 197.698 215.835 197.557 215.98 197.385C216.271 197.041 216.647 196.584 217.062 196.071C217.891 195.046 218.867 193.805 219.613 192.82C221.683 190.087 223.973 186.67 226.648 182.319C227.773 180.491 231.185 173.938 232.234 171.59C234.104 167.406 235.858 162.779 237.011 158.992C237.416 157.66 237.909 156.042 238.105 155.397C238.466 154.212 239.322 150.714 239.89 148.094C240.553 145.031 241.156 141.052 241.608 136.741C241.703 135.836 241.849 134.703 241.934 134.221C241.951 134.121 241.972 133.801 241.99 133.263C242.008 132.741 242.023 132.052 242.035 131.248C242.059 129.64 242.07 127.579 242.069 125.488C242.068 121.289 242.016 117.02 241.92 116.027C240.353 99.8216 236.905 87.4096 230.403 74.5264C226.425 66.645 222.692 60.9195 216.675 53.4815C214.539 50.841 210.252 46.156 208.523 44.5694H208.522C201.636 38.2484 197.811 35.1897 192.063 31.4014C182.51 25.1037 173.867 20.8908 163.511 17.4834C161.902 16.9541 156.241 15.3439 154.645 14.9619C149.961 13.8405 142.36 12.6171 138.082 12.294C137.437 12.2451 136.677 12.1848 135.974 12.126L134.199 11.9697ZM172.1 143.972C173.617 143.967 175.205 144.17 178.15 144.565C183.329 145.26 189.331 147.736 194.069 151.118C196.979 153.194 201.43 157.674 203.779 160.884V160.885C204.676 162.111 205.735 163.765 206.569 165.188C206.986 165.899 207.351 166.559 207.613 167.083C207.744 167.344 207.853 167.579 207.931 167.772C207.969 167.869 208.002 167.963 208.026 168.049C208.049 168.127 208.073 168.231 208.073 168.339C208.073 168.543 207.967 168.694 207.916 168.76C207.852 168.843 207.771 168.919 207.692 168.986C207.533 169.122 207.319 169.269 207.077 169.417C206.589 169.715 205.933 170.05 205.238 170.346C201.404 171.974 197.14 173.214 193.199 173.844C192.6 173.94 191.724 174.085 191.254 174.167C190.13 174.364 188.497 174.502 186.979 174.56C185.476 174.617 184.019 174.599 183.268 174.466C182.914 174.403 182.203 174.342 181.707 174.334H181.706C180.805 174.32 179.694 174.153 177.36 173.701C175.61 173.362 173.361 172.69 171.453 171.939C166.258 169.894 160.85 165.975 157.858 162.064V162.063C157.446 161.524 156.825 160.721 156.48 160.278C156.126 159.824 155.645 159.141 155.405 158.748L155.404 158.747C154.691 157.58 153.838 155.801 153.186 154.238C152.859 153.455 152.578 152.715 152.388 152.124C152.293 151.83 152.219 151.563 152.173 151.342C152.15 151.231 152.132 151.123 152.124 151.023C152.117 150.933 152.114 150.812 152.144 150.692L152.173 150.601C152.251 150.39 152.406 150.207 152.548 150.064C152.726 149.885 152.958 149.696 153.224 149.505C153.757 149.121 154.471 148.693 155.277 148.265C156.891 147.407 158.921 146.523 160.706 145.966C163.442 145.112 163.842 145.017 166.48 144.605C169.135 144.192 170.578 143.977 172.1 143.972ZM81.5625 143.969C82.9457 143.987 84.4585 144.191 87.4053 144.585C91.3611 145.114 96.9245 147.143 100.17 149.242C100.432 149.412 100.645 149.551 100.811 149.671C100.974 149.789 101.119 149.907 101.231 150.039C101.503 150.359 101.511 150.68 101.51 150.972V150.973C101.508 151.462 101.362 152.111 101.119 152.859C100.873 153.62 100.513 154.523 100.052 155.535C99.9707 155.713 99.8974 155.883 99.8457 156.013C99.8197 156.078 99.8007 156.128 99.7891 156.162C99.788 156.165 99.787 156.168 99.7861 156.171C99.7746 156.25 99.7501 156.312 99.7432 156.33C99.725 156.378 99.7011 156.431 99.6768 156.482C99.6275 156.587 99.5598 156.718 99.4795 156.865C99.3179 157.162 99.0949 157.549 98.8438 157.969C98.3416 158.809 97.7164 159.803 97.2285 160.515C96.4832 161.602 95.1231 163.119 93.6699 164.563C92.2145 166.008 90.6314 167.412 89.4248 168.267C85.3637 171.141 80.3507 173.205 75.6191 173.946C74.8029 174.074 73.7134 174.244 73.1973 174.324C72.4859 174.435 71.0439 174.514 69.6885 174.546C69.0054 174.562 68.3335 174.566 67.7725 174.557C67.3614 174.55 66.9898 174.536 66.7148 174.51L66.4736 174.479C66.0741 174.41 65.3271 174.347 64.833 174.341C63.3356 174.323 59.2424 173.623 56.2041 172.879C54.1614 172.379 50.5264 171.125 48.666 170.279C47.6254 169.806 47.0435 169.539 46.708 169.356C46.5395 169.265 46.4023 169.179 46.293 169.081C46.2311 169.026 46.1825 168.971 46.1436 168.918L46.0498 168.765C45.9938 168.658 45.9797 168.554 45.9756 168.486C45.9712 168.414 45.9755 168.343 45.9834 168.281C45.9992 168.157 46.033 168.02 46.0742 167.881C46.1576 167.601 46.2912 167.256 46.4531 166.888C46.7776 166.15 47.2377 165.27 47.708 164.54C50.3536 160.432 51.9691 158.365 54.6924 155.613C58.06 152.212 61.3398 149.825 65.3994 147.826C69.1644 145.972 72.4055 144.983 76.4922 144.44L78.1123 144.229C79.5535 144.046 80.5201 143.955 81.5625 143.969ZM205.777 97.7051C207.685 97.7213 209.666 97.7984 210.686 97.9326C215.526 98.5705 216.647 98.7776 219.89 99.6397C220.817 99.8864 221.43 100.063 221.812 100.21C221.998 100.282 222.171 100.361 222.303 100.461C222.442 100.567 222.604 100.75 222.604 101.023C222.604 101.201 222.549 101.424 222.487 101.63C222.42 101.854 222.325 102.125 222.211 102.424C221.981 103.024 221.664 103.767 221.31 104.543C220.603 106.09 219.73 107.808 219.08 108.834C218.491 109.764 217.721 110.927 217.046 111.918C216.381 112.894 215.783 113.74 215.549 114.013V114.014C215.291 114.312 214.692 115.063 214.221 115.68C213.63 116.453 212.345 117.804 211.017 119.105C209.686 120.409 208.27 121.703 207.406 122.356C202.759 125.872 197.547 128.373 192.905 129.292C188.812 130.102 186.492 130.264 182.618 130.006C178.377 129.723 175.361 129.106 171.689 127.763C170.17 127.207 169.384 126.836 168.838 126.336C168.433 125.966 168.31 125.426 168.331 124.808C168.352 124.189 168.521 123.39 168.813 122.379C170.26 117.373 173.071 112.41 176.503 108.819C178.032 107.22 181.09 104.843 183.562 103.321C187.723 100.76 193.393 98.8328 198.684 98.1758C199.455 98.0798 200.556 97.9349 201.127 97.8535C201.975 97.7329 203.876 97.6889 205.777 97.7051ZM48.71 97.7051C50.6182 97.7043 52.5431 97.7553 53.3184 97.8672C53.9361 97.9565 54.9339 98.0997 55.5352 98.1856C62.5576 99.188 68.4344 101.592 73.8896 105.699C74.7133 106.32 76.0621 107.61 77.3438 108.943C78.6264 110.278 79.885 111.7 80.5225 112.598V112.599C82.6276 115.565 84.5174 119.853 85.4053 123.668C85.5009 124.079 85.5762 124.493 85.6201 124.833C85.642 125.002 85.657 125.161 85.6621 125.294C85.6663 125.402 85.6682 125.569 85.624 125.708C85.5782 125.852 85.4918 125.966 85.418 126.047C85.34 126.132 85.2467 126.211 85.1494 126.283C84.9544 126.429 84.7014 126.579 84.4141 126.729C83.8367 127.03 83.0648 127.359 82.2012 127.682C80.4732 128.326 78.3258 128.961 76.5293 129.298C76.0891 129.38 75.5654 129.477 75.0762 129.564L73.8281 129.782C73.0945 129.905 71.3718 129.989 69.6357 130.023C67.8919 130.058 66.0644 130.042 65.1064 129.955C57.0018 129.22 49.5808 125.474 42.917 118.798C38.706 114.58 35.7195 110.424 33.0469 105.063C32.5837 104.135 32.2289 103.417 31.9805 102.861C31.7371 102.317 31.5716 101.879 31.5215 101.524C31.4954 101.34 31.496 101.15 31.5508 100.966C31.6079 100.774 31.7147 100.619 31.8506 100.498C32.0893 100.285 32.4345 100.168 32.7275 100.069C35.3983 99.1738 38.8351 98.5032 43.9258 97.8701H43.9268C44.8186 97.7596 46.7972 97.7059 48.71 97.7051ZM188.866 47.1094C189.03 47.0927 189.193 47.1205 189.346 47.1934C189.539 47.2861 189.684 47.437 189.79 47.5967C189.997 47.9093 190.114 48.3408 190.161 48.8145V48.8155C190.644 53.6955 190.653 54.4664 190.271 59.1006C189.963 62.8542 189.624 64.8992 188.82 67.8457C186.695 75.6336 182.399 82.3786 176.698 86.8379C174.515 88.5452 172.354 89.92 169.908 91.1543C165.074 93.5937 160.924 94.6338 155.982 94.6358C154.981 94.6362 154.334 94.6271 153.911 94.5889C153.514 94.553 153.175 94.4861 152.936 94.2471C152.792 94.1037 152.684 93.9083 152.595 93.7061C152.502 93.4955 152.413 93.2356 152.325 92.9307C152.15 92.3206 151.967 91.4864 151.77 90.4092C151.181 87.1989 151.354 81.6257 152.145 78.0664C153.979 69.8093 160.29 61.4125 168.838 55.7598V55.7588C171.401 54.0641 175.409 51.8863 178.002 50.7813C178.559 50.544 179.542 50.1191 180.185 49.8369C181.483 49.2673 185.584 47.9239 187.375 47.4785L188.703 47.1406L188.866 47.1094ZM64.3379 47.2754C64.6497 47.0725 65.0124 47.0771 65.3389 47.124C65.6715 47.172 66.0887 47.2846 66.5859 47.4209C75.5439 49.877 82.9116 53.5817 89.5576 58.9795C91.7018 60.7207 93.2173 62.2857 95.0957 64.6934C97.0852 67.2436 97.8698 68.4574 99.082 70.8682C100.614 73.9155 101.238 75.6703 101.926 78.877C102.324 80.7328 102.357 81.21 102.363 84.6836C102.37 88.3696 102.234 90.0213 101.737 92.0684L101.436 93.3389C101.388 93.5514 101.324 93.7961 101.186 94.0049C101.028 94.2416 100.807 94.3894 100.532 94.4766C100.279 94.5568 99.9677 94.5909 99.5986 94.6074C99.2228 94.6242 98.7453 94.6234 98.1436 94.6182C96.9129 94.6071 95.241 94.5029 94.416 94.3828C89.4185 93.655 84.8517 91.8732 80.1143 88.8135C77.8534 87.3533 76.3227 86.0601 73.9336 83.6045C71.2345 80.8303 69.5046 78.3853 67.7656 74.8877C65.6656 70.6624 64.9456 68.2727 63.7061 61.4932C63.5068 60.4022 63.3848 57.875 63.3506 55.4102C63.3164 52.9477 63.3683 50.4426 63.5391 49.3985C63.6233 48.8832 63.6952 48.4531 63.79 48.128C63.8828 47.81 64.0278 47.4774 64.3379 47.2754ZM126.855 21.7725C126.951 21.7902 127.024 21.8274 127.055 21.8438C127.113 21.875 127.169 21.9138 127.219 21.9502C127.319 22.0241 127.434 22.1231 127.557 22.2363C127.804 22.4651 128.118 22.7841 128.466 23.1572C129.163 23.9052 130.017 24.8945 130.79 25.8662C137.584 34.4066 141.036 43.5594 140.653 52.2071C140.456 56.6678 139.791 59.5187 138.11 63.0381C137.035 65.2913 136.106 66.8123 134.766 68.5098C134.325 69.0685 133.616 69.9671 133.191 70.5069C132.651 71.194 131.273 72.4469 130.002 73.503C129.359 74.0371 128.726 74.5342 128.218 74.8994C127.965 75.0812 127.735 75.2367 127.546 75.3477C127.452 75.4028 127.358 75.4529 127.271 75.4903C127.203 75.5194 127.069 75.5725 126.92 75.5684C126.768 75.564 126.59 75.5062 126.468 75.461C126.323 75.4074 126.16 75.3358 126.011 75.2569V75.2559C125.712 75.0975 125.157 74.7098 124.76 74.3897C119.141 69.8651 115.266 64.1111 113.8 58.0547C112.824 54.0252 112.69 50.6341 113.32 46.1153C113.708 43.3326 114.872 39.5849 116.482 35.8906C117.128 34.41 118.471 32.1417 119.945 29.9209C121.422 27.6971 123.058 25.4803 124.306 24.1055L125.023 23.3047C125.267 23.0302 125.494 22.77 125.647 22.5918H125.648C125.815 22.399 125.988 22.2192 126.138 22.084C126.211 22.0175 126.288 21.9535 126.36 21.9033C126.396 21.8787 126.441 21.8502 126.49 21.8262C126.527 21.8085 126.626 21.7627 126.753 21.7627L126.855 21.7725Z" fill="#C29E5A"/>
</svg>
