<svg xmlns="http://www.w3.org/2000/svg" width="64" height="64" fill="none"><path fill="#C29E5A" d="M15.6 41.6c-1.302 0-2.416-.471-3.343-1.414s-1.39-2.076-1.39-3.4c0-1.324.463-2.453 1.39-3.386.927-.933 2.041-1.4 3.343-1.4 1.338 0 2.484.471 3.437 1.414.953.943 1.43 2.076 1.43 3.4 0 1.324-.477 2.453-1.43 3.386-.953.933-2.099 1.4-3.437 1.4Zm32.733 0c-1.338 0-2.484-.471-3.437-1.414-.953-.943-1.43-2.076-1.43-3.4 0-1.324.477-2.453 1.43-3.386.953-.933 2.1-1.4 3.437-1.4 1.302 0 2.416.471 3.343 1.414s1.39 2.076 1.39 3.4c0 1.324-.463 2.453-1.39 3.386-.927.933-2.04 1.4-3.343 1.4ZM32 38.8c-1.689 0-3.133-.6-4.333-1.8-1.2-1.2-1.8-2.644-1.8-4.333 0-1.69.6-3.134 1.8-4.334 1.2-1.2 2.644-1.8 4.333-1.8s3.133.6 4.333 1.8c1.2 1.2 1.8 2.645 1.8 4.334 0 1.689-.6 3.133-1.8 4.333-1.2 1.2-2.644 1.8-4.333 1.8ZM19.2 55.934a12.889 12.889 0 0 1 1.633-4.1 12.862 12.862 0 0 1 2.9-3.3 13.327 13.327 0 0 1 3.837-2.167 12.844 12.844 0 0 1 4.433-.767c1.554 0 3.03.256 4.43.767 1.4.51 2.678 1.233 3.834 2.166a12.862 12.862 0 0 1 2.9 3.3 12.886 12.886 0 0 1 1.633 4.1H19.2Zm-11.267 0c-.755 0-1.377-.244-1.866-.731-.49-.487-.734-1.043-.734-1.67 0-1.866 1.09-3.655 3.267-5.366 2.178-1.711 4.467-2.567 6.867-2.567 1.033 0 2.035.133 3.008.4.972.267 1.88.667 2.725 1.2a15.85 15.85 0 0 0-3 3.965c-.8 1.49-1.356 3.08-1.667 4.769h-8.6Zm39.534 0a16.237 16.237 0 0 0-1.667-4.77 15.85 15.85 0 0 0-3-3.964 12.947 12.947 0 0 1 2.667-1.167 10.093 10.093 0 0 1 3-.433c2.4 0 4.7.856 6.9 2.567 2.2 1.71 3.3 3.5 3.3 5.366 0 .661-.25 1.227-.75 1.696-.5.47-1.117.705-1.85.705h-8.6ZM3.892 29.119c-.373-.457-.514-.947-.425-1.469.088-.522.355-.961.8-1.316L29.6 7.134a3.95 3.95 0 0 1 2.407-.8 3.89 3.89 0 0 1 2.393.8l9.4 7.133v-3c0-.945.33-1.747.988-2.409.66-.66 1.46-.991 2.4-.991.941 0 1.745.33 2.412.991.667.662 1 1.464 1 2.409v8.102l9.133 6.965c.45.338.718.778.804 1.32.087.542-.048 1.035-.404 1.48-.355.444-.789.7-1.3.766-.51.067-.989-.078-1.433-.433L32 10.4 6.6 29.467c-.444.355-.926.5-1.445.435-.518-.065-.94-.326-1.263-.783Z"/></svg>