<svg xmlns="http://www.w3.org/2000/svg" width="64" height="64" fill="none"><path fill="#C29E5A" d="M32 52.6c-.29 0-.574-.033-.851-.1a1.894 1.894 0 0 1-.749-.367 26.497 26.497 0 0 0-6.238-3.033 21.478 21.478 0 0 0-6.829-1.1c-1.866 0-3.7.245-5.5.733A24.132 24.132 0 0 0 6.667 50.8c-.934.489-1.834.467-2.7-.067-.867-.533-1.3-1.31-1.3-2.333V16.267c0-.49.122-.956.366-1.4a2.3 2.3 0 0 1 1.1-1 27.823 27.823 0 0 1 6.4-2.4c2.223-.534 4.49-.8 6.8-.8 2.578 0 5.1.333 7.567 1a28.745 28.745 0 0 1 7.1 3V48.4a27.27 27.27 0 0 1 7.133-3.3c2.49-.733 5-1.1 7.534-1.1 1.6 0 3.344.156 5.233.467 1.889.31 3.7.955 5.433 1.933V12.733c.44.167.872.342 1.296.525.425.184.838.387 1.238.609.444.266.8.615 1.066 1.045.267.43.4.881.4 1.355V48.4c0 1.022-.433 1.8-1.3 2.333-.866.534-1.766.556-2.7.067a24.131 24.131 0 0 0-5.166-2.067 20.891 20.891 0 0 0-5.5-.733c-2.35 0-4.626.367-6.829 1.1a26.493 26.493 0 0 0-6.238 3.033c-.222.178-.472.3-.749.367s-.56.1-.851.1Zm5.667-11.867c-.356.267-.723.323-1.1.167-.378-.155-.567-.456-.567-.9V19.067a.954.954 0 0 1 .267-.667L51.6 3.067c.311-.311.678-.388 1.1-.23.422.156.633.456.633.896v22.934a.84.84 0 0 1-.095.386c-.064.125-.143.24-.238.347L37.667 40.733ZM28 46.4V17.133c-1.511-.844-3.267-1.466-5.267-1.866-2-.4-3.8-.6-5.4-.6-2.089 0-4.033.222-5.833.666-1.8.445-3.411 1.012-4.833 1.702V46.4a24.058 24.058 0 0 1 5.033-1.767c1.8-.422 3.689-.633 5.667-.633 1.977 0 3.855.211 5.633.633a24.217 24.217 0 0 1 5 1.767Z"/></svg>