<svg xmlns="http://www.w3.org/2000/svg" width="64" height="64" fill="none"><path fill="#C29E5A" d="M32 5.533a3.916 3.916 0 0 1 1.4.267l17.333 6.467a4.146 4.146 0 0 1 1.876 1.489c.483.684.724 1.454.724 2.31v12.467a1.8 1.8 0 0 1-.6 1.377c-.4.371-.866.556-1.4.556-.533 0-1-.2-1.4-.6-.4-.4-.6-.866-.6-1.4v-12.4L32 9.667l-17.333 6.4V29.2c0 3.111.466 5.989 1.4 8.633.933 2.645 2.133 5.011 3.6 7.1 1.466 2.09 3.122 3.878 4.966 5.367 1.845 1.489 3.656 2.633 5.434 3.433.489.222.844.59 1.066 1.1.223.511.231 1.014.026 1.509a2.12 2.12 0 0 1-1.192 1.125c-.556.222-1.1.222-1.634 0-5.555-2.267-9.888-6.061-13-11.383-3.11-5.322-4.666-10.95-4.666-16.884V16.067c0-.857.242-1.627.725-2.311a4.141 4.141 0 0 1 1.875-1.49L30.6 5.8c.233-.107.467-.178.7-.213a4.64 4.64 0 0 1 .7-.054Zm14.167 53.133c-3.445 0-6.39-1.233-8.834-3.7-2.444-2.466-3.666-5.388-3.666-8.766 0-3.486 1.222-6.458 3.666-8.915 2.444-2.457 5.4-3.685 8.867-3.685 3.422 0 6.367 1.228 8.833 3.685 2.467 2.458 3.7 5.43 3.7 8.915 0 3.378-1.233 6.3-3.7 8.767-2.466 2.466-5.422 3.7-8.866 3.7ZM46.059 46c1.15 0 2.128-.422 2.933-1.267.805-.844 1.208-1.842 1.208-2.992s-.403-2.128-1.208-2.933c-.805-.806-1.783-1.208-2.933-1.208s-2.148.402-2.992 1.208c-.845.805-1.267 1.783-1.267 2.933s.422 2.148 1.267 2.992c.844.845 1.841 1.267 2.992 1.267Zm-.046 8.333c1.253 0 2.43-.244 3.533-.733a8.347 8.347 0 0 0 2.854-2.067.806.806 0 0 0 .167-.733c-.067-.267-.211-.445-.434-.533a16.411 16.411 0 0 0-3.014-1.034 13.546 13.546 0 0 0-3.134-.366c-1.056 0-2.096.11-3.118.333a12.744 12.744 0 0 0-3 1.066c-.222.09-.378.267-.467.534a.736.736 0 0 0 .133.733 7.56 7.56 0 0 0 2.9 2.1c1.134.467 2.327.7 3.58.7Z"/></svg>